<?xml version="1.0" encoding="utf-8"?>
<!-- Generator: Adobe Illustrator 21.0.0, SVG Export Plug-In . SVG Version: 6.00 Build 0)  -->
<svg version="1.1" id="Layer_1" xmlns="http://www.w3.org/2000/svg" xmlns:xlink="http://www.w3.org/1999/xlink" x="0px" y="0px"
	 viewBox="0 0 496.4 564" style="enable-background:new 0 0 496.4 564;" xml:space="preserve">
<style type="text/css">
	.st0{fill:#FFFFFF;}
</style>
<path class="st0" d="M495.6,85c-1.9-1.3-2.8,1.4-3.6,2.6c-7,10.4-15.9,19-25.1,27.3c-4,3.6-8.2,6.9-13.6,8.2
	c-2.7,0.7-4.1-0.3-4.3-3.1c-0.7-7.3,4-14.1,11-15.9c8.8-2.3,16.3-6.7,22.5-13.4c2.9-3.1,4.5-6.8,3.6-11.1c-0.8-3.9-3-5.7-7-5.6
	c-3.9,0.1-7.3,1.7-10.4,3.7c-10.4,6.8-18.7,15.8-25.3,26.3c-2.5,3.9-5.1,7.6-8,11c-2.1,2.4-4,5.1-6.8,6.7c-1.4,0.8-3.3,2.1-4.6,1.1
	c-1-0.7,0-2.8,0.6-4.1c0.5-1.4,1.1-2.8,1.8-4.1c3-5.1,6-10.1,9-15.1c4.8-7.8,9.6-15.5,14.6-23.6c-3.6,0-6.8,0.1-10,0
	c-2-0.1-3,0.5-3.9,2.3c-5.6,11.2-12.3,21.7-19.9,31.7c-3.3,4.2-6.7,8.3-11.2,11.3c-1.4,0.9-3,3.2-4.6,1.8c-1.5-1.3-0.3-3.6,0.5-5.3
	c3.3-7.3,7.7-14,12.1-20.7c4-6,7.8-12,11-18.4c0.9-1.8,1.2-2.9-1.6-2.7c-2.1,0.2-4.3,0.1-6.4,0c-1.6-0.1-2.5,0.4-3.3,1.9
	c-1.2,2.4-2.2,5.2-4.2,6.7c-3.2,2.5-5.6,5.6-7.7,8.8c-4.1,6.1-8.2,12.2-13.4,17.5c-3.7,3.8-7.5,7.3-12,10c-1.1,0.7-2.4,1.1-3.6,0.1
	c-1.3-1.1-0.9-2.5-0.3-3.8c0.5-1.1,1.2-2,1.9-3c6.8-10,13.6-19.9,20.4-29.9c1.8-2.7,3.6-5.4,5.7-8.5c-6.2,0.3-12.5-2.2-16.1,5.1
	c-1.7-5.5-4.5-7.1-9.4-5.9c-2.3,0.6-4.4,1.4-6.5,2.5c-10.2,5.4-17.9,13.4-23.8,23.2c-2.3,3.8-6,5.2-10.2,7.4
	c1.5-7.2-0.2-13.3-2.1-19.3c-1.2-3.9-1.1-7.5,2.2-10.6c1.5-1.4,2.6-3.3,3.7-5.2c0.8-1.3,1.7-2.9,0-4.3c-1.5-1.2-3.1-1.1-4.8-0.2
	c-2.4,1.3-4.1,3.4-5.6,5.6c-9.4,12.9-18.1,26.4-30.4,37c-5.3,4.6-10.4,9.6-17.3,11.7c-3.2,1-5-0.4-4.7-3.8c0.3-3.9,1.5-7.5,3.4-10.9
	c1.1-2,2.7-3.1,5-3.6c6-1.1,11.7-3.4,16.7-6.9c4.5-3.1,8.9-6.4,11.2-11.6c1.6-3.5,1.5-7.2-1-10.3c-2.3-2.8-5.6-2.3-8.6-1.4
	c-6.9,2.1-12.6,6.3-17.8,11.1c-3.3,3-5.6,7-9.3,9.7c-2,1.4-4.1,2.9-7,2.8c0.7-1.6,1.4-2.9,1.9-4.3c2.2-5.4,3.9-10.9,2.8-16.8
	c-0.6-3.3-2.6-4.7-6-4.2c-2,0.3-3.7,1.4-4.9,2.9c-5.1,6.6-6.9,13.6-2.9,21.4c0.4,0.9,0.8,1.5,0.3,2.6c-4.2,8.4-10,15.3-18.2,20.2
	c-1.3,0.8-2.7,1.6-4.2,0.5c-1.6-1.2-1.5-2.9-1.1-4.6c0.8-3.5,2.6-6.5,4.5-9.5c13.7-22,27.3-44.1,41-66.1c2.2-3.6,4.4-7.2,6.8-11
	c-3.2,0-5.9,0.1-8.5,0c-2.1-0.1-3.2,0.5-4.3,2.3c-10.3,16.7-20.7,33.3-31.1,50c-0.5,0.8-0.8,1.8-1.7,2.2c-3.8,1.6-6,4.8-8.1,8
	c-5.5,8.5-12,16-18.9,23.4c-1.4,1.6-2.9,3.2-4.7,4.3c-1.5,1-3.4,3-5.1,1.5c-1.7-1.6,0.2-3.6,1-5.1c5.9-10.7,12.4-20.9,18.8-31.3
	c1.6-2.7,3.2-5.4,5.1-8.6c-3.1,0-5.6,0.2-8,0c-2.7-0.2-5,0.1-6,3.1c-3.3-3.7-5.5-4.3-10.2-3.2c-2.4,0.6-4.6,1.7-6.7,3
	c-9,5.8-16.7,12.9-21.5,22.4c-3.5,6.9-8.6,12.1-14.1,17.2c-2.2,2-4.4,4-7.2,5.3c-1.2,0.5-2.3,0.5-3.3-0.3c-1.1-0.9-1.3-2.2-0.8-3.5
	c0.7-1.6,1.4-3.1,2.3-4.6c4.3-6.8,8.8-13.6,14-19.9c3.1-3.7,5.5-7.9,7.2-12.4c0.7-1.8,0.8-3.8-0.7-5.4c-1.5-1.7-3.3-1.2-5.1-0.7
	c-3.2,1-6.4,2.1-9.8,3.3c1.2-2.6,2.4-5.1,3.3-7.6c0.6-1.5,1.4-3.5-0.4-4.7c-1.9-1.2-3.8-0.3-5.1,1.3c-2.9,3.6-5.4,7.4-7.1,11.7
	c-0.6,1.5-0.8,3.1-0.4,4.7c0.3,1.5,1.1,2.4,2.9,2.1c2.4-0.3,4.6-1.1,6.8-1.8c0.7-0.2,1.6-1.2,2.2-0.2c0.5,0.8-0.1,1.7-0.6,2.3
	c-2.4,2.9-4.9,5.6-7.2,8.6c-4.9,6.5-9.5,13.3-9.1,22c0.3,6.8,5.4,9.9,11.6,7c4.3-2,7.8-5.2,11.1-8.5c1.6-1.6,2.9-3.4,4.4-5.1
	c0.7,1.4,0.7,2,0.7,2.6c0,4.5,1.3,8.6,5.6,10.7c4.4,2.1,7.5-0.8,10.5-3.4c0.2-0.1,0.3-0.3,0.5-0.4c2.6-2.4,5.3-4.9,7.8-7.2
	c0.3,1.5,0.5,3.5,1.1,5.4c1.5,5.1,5.7,6.7,10.2,4c2.7-1.6,5-3.7,7.2-5.8c5.6-5.3,10.4-11.2,15.2-17.3c0.7,1.2-0.2,1.8-0.5,2.6
	c-1.5,4-2.6,8.1-2.4,12.5c0.3,6.2,4,9.4,10.2,8.3c2.2-0.4,4.3-1.3,6.2-2.4c7.2-4.3,13.1-10,17.9-16.7c2.1-2.8,4.5-3.2,7.9-3.7
	c-3.4,4.5-4.4,9.3-4.8,14.2c-0.5,7.8,4,11.8,11.6,10.9c6.3-0.7,11.3-3.7,15.8-7.8c4.4-4,8.9-8,13.1-12.3
	c5.9-5.9,12.4-11.5,15.9-19.5c0.1-0.3,0.4-0.8,0.7-0.7c2.8,3.9,3.5,8,2.8,12.3c-0.5,2.9-1.3,5.8-2.2,8.7c-0.7,2.3-1.3,5.2-4.3,5.4
	c-2.9,0.2-4.7-2.2-6.2-4.4c-0.4-0.5-0.7-1.1-0.8-1.7c-0.3-2.1-1.4-1.7-2.7-0.9c-2.7,1.7-4.1,4.4-5.3,7.1c-3.6,8,0.7,14,9.5,13.4
	c7.2-0.5,12.7-4.2,16.2-10.1c2.5-4.2,6.7-5.3,10.8-8.5c-1.3,3.8-1.6,6.7-1.5,9.7c0.3,7.1,5.2,10.3,11.9,7.9c1.4-0.5,2.7-1.3,4-2.3
	c0.3,1.1-0.3,1.5-0.6,2c-4.3,6.6-8.8,13.1-13,19.8c-4.4,6.8-8.6,13.8-10.5,21.8c-1,4.3,0,8.1,3.4,11c3.5,3,7.2,1.4,10.4-0.5
	c18.2-11.1,29.5-26.6,29.8-48.6c0-1.7,0.5-2.7,1.8-3.7c7.2-6.1,14.8-11.9,20.5-19.7c1.2-1.6,2.4-3.1,3.6-4.7c0,1.1-0.4,2.1-0.9,3
	c-1.9,3.9-4.2,7.7-5.3,12c-1.2,5-0.1,9.2,2.8,10.6c3.3,1.7,7.6,0.2,11-3.7c0.1-0.2,0.3-0.3,0.4-0.5c3.1-3.3,6.1-6.6,9.7-10.5
	c-0.8,3.1-0.7,5.5-0.5,7.8c0.6,7.4,4.6,9.4,10.7,5.5c1-0.6,1.9-1.3,2.8-2.1c2.9-2.6,5.9-5.1,9.2-8.1c0,1.5-0.1,2.7,0,3.8
	c0.5,6,4.3,9.3,10.3,8.8c4.9-0.4,9.4-2,13.3-5c6.4-4.8,11.9-10.7,17.7-16.2c5-4.7,9.9-9.4,13.4-15.5C495.7,88.3,497.5,86.2,495.6,85
	z M474.1,80c2.7-2.8,6.1-3.5,7.3-1.7c1.9,2.9-0.4,4.9-2.1,6.9c-5.9,7.1-12.7,12.8-22.1,15.7C461.6,92.6,467.9,86.3,474.1,80z
	 M298.3,81.3c1.5-1.7,3.2-3.1,5.5-3.8c1.3-0.4,2.3-0.2,3.2,0.7c0.9,0.9,0.8,1.9,0.4,3c-0.2,0.6-0.4,1.3-0.8,1.7
	c-6.3,8-13.5,14.7-23.8,17.9C286.7,93.1,292.7,87.3,298.3,81.3z M187.1,118.6c-1,1.1-2.1,2.1-3.5,2.8c-0.7,0.3-1.3,0.7-2.1,0.2
	c-0.7-0.5-0.7-1.3-0.5-2.5c0.6-1.7,1.3-3.8,2.2-5.8c5-11,11.6-20.8,19.5-29.8c1.2-1.4,2.6-2.5,4.1-3.6c1.2-0.9,2.5-1.2,3.8-0.3
	c1.4,0.9,1.1,2.2,0.7,3.4c-1.2,4.4-3.5,8.3-5.9,11.9C200.1,103.3,194.1,111.4,187.1,118.6z M260.9,94.9c-2.3-6.2-0.8-11.3,1.9-16.1
	c0.7-1.2,2-2.1,3.5-1.2c1.5,0.8,0.8,2,0.5,3.1C265.4,85.4,263.7,90,260.9,94.9z M311.6,122.5c-2.5,1.3-5.1,0.1-5.8-2.5
	c-0.7-2.5-0.6-5,0.8-7.4c0.7-1.2,1.6-2.5,2.8-2.9c1.3-0.4,1.5,1.5,2.3,2.3c1.6,1.8,3.6,3,5.9,3.8C316.4,119,314.3,121.2,311.6,122.5
	z M353.2,119.5c-1.3,1.2-2.8,3.5-4.8,2.3c-2.1-1.3-0.3-3.5,0.3-5.2c4.7-13.4,12.8-24.7,22.2-35.2c1.7-1.9,3.6-3.6,6.2-3.8
	c2.2,0.1,3.2,1.1,3,3.1c-0.1,1.1-0.6,2.3-1.1,3.3C372.5,97.4,364.1,109.4,353.2,119.5z M371.1,133.5c-5.1,13.7-12.5,26.1-22.5,36.9
	c-1.9,2-4,3.8-6.6,5c-1.6,0.7-3.3,1.1-4.8-0.2c-1.6-1.3-0.9-3-0.4-4.4c1.9-5.7,5.1-10.8,8.4-15.7c6.5-9.8,12.6-19.8,19.5-29.3
	c1.2-1.6,2.5-2.2,4.4-1.7c1.8,0.6,2.8,1.9,2.8,3.8c0,0.4,0,0.9,0,1.1C372.1,130.7,371.6,132.1,371.1,133.5z"/>
<path class="st0" d="M184.8,0c-2.7,0.3-5.1,1.4-7.6,2.3c-17.1,6.7-31.4,17.5-44.9,29.6c-13.1,11.8-25,24.8-36.5,38.2
	c-3.9,4.5-7.8,7.4-14,6.4c-2.5-0.4-5.1,0-7.7,0.3c-1.4,0.1-2.8,0.8-2.6,2.6c0.2,2.1,1.8,1.4,2.9,1.4c3.6,0.1,7.2,0,11.8,0
	C81.6,85.8,77.8,90,74,94.2c-6.9,7.6-13.9,15.1-22.8,20.5c-8.7,5.3-17.8,8-28.1,6.1C7.8,117.9,1.3,105.9,7.7,91.7
	c4.3-9.7,11-17.4,19.9-23.3C34,64.2,40.9,62,48.6,63c7.4,0.9,12.9,6,12.9,12c0.1,9.1-8.2,18.1-17.4,18.7c-3.2,0.2-6.9-2-8.2-5.1
	c-1.6-3.5-1.1-5.3,2.1-8.4c1.4-1.3,2.6-2.8,3.8-4.3c0.4-0.5,1-1.3,0.3-2c-0.7-0.8-1.5-0.6-2.3-0.1c-4.4,2.7-7.4,6.4-7.7,11.8
	c-0.3,6.8,3.2,10.6,10,11c3,0.2,6-0.3,8.8-1.4c8.9-3.4,14.4-12.2,13.4-21.8c-0.7-7.7-6.9-13.3-16.2-14.7c-18.8-3-42,11.5-47,30
	c-4.7,17.2,3.6,34.9,25.5,36c14.7,0.7,27-4.8,38.2-13.8c10.6-8.6,19.1-19.3,29.2-28.2c0.8-0.7,1.3-1.7,2.6-1.7c5.7,0,11.5,0,17.2,0
	c0.1,1.3-0.6,2-1,2.9c-3.1,6.1-6.8,11.9-8.4,18.6c-2.1,8.9-1.9,17.5,5.1,24.5c5.1,5.2,12.3,5.2,17.7-1.6c0.5-0.7,1.1-1.7,0.5-2.3
	c-0.7-0.8-1.7-0.1-2.5,0.3c-1.6,0.9-3.1,1.9-4.7,2.7c-2.6,1.4-5.2,1.7-7.7-0.4c-2.4-2-2.4-4.5-1.8-7.3c1.9-8.3,5.9-15.8,10.5-22.9
	c19.3-30.4,40.5-59.5,63.1-87.5c1.2-1.4,2.3-2.8,2.8-4.6C188.2,0.9,187.3-0.3,184.8,0z M155.2,31.5c-12.1,13.8-23.7,28-35,42.5
	c-1.3,1.7-2.8,2.4-4.8,2.4c-5,0-10,0-15.2,0c0.2-1.8,1.5-3,2.5-4.1c9.9-10.7,18-22.8,28-33.4C144,24.8,159,12.6,178,6.3
	c0.3-0.1,0.6-0.1,1.6-0.3C170.9,14.6,162.8,22.8,155.2,31.5z"/>
<path class="st0" d="M369.7,308c-0.7,1-0.7,2.4-2.2,3.2c-1-2.3,0.1-4.2,0.8-6.1c0.7-1.6,0.8-2.4-1.3-3.1c-4.4-1.6-8.5-3.7-11.3-7.8
	c-1-1.4-2.4-1.4-3.9-1.5c-11-0.3-22-1.2-33-0.8c-12.6,0.5-23.5-5.4-35.3-7.8c-6.3-1.3-12.4-3.3-18.6-5.2c-1.6-0.5-2.5,0.2-3.1,1.4
	c-5.3,10.1-10.6,20.3-11.8,31.8c-0.5,4.9,5.7,12.3,10.6,13.3c0.9,0.2,1.6-0.3,2.4-0.5c13.8-4.1,27.4-8.8,41.5-11.6
	c3.9-0.8,7.7-1.2,11.6-0.3c3.3,0.8,5.1,3.9,3.5,6.9c-0.9,1.6-0.8,2.5,0.2,3.9c0.9,1.3,0.8,2.7-1,3.3c-1.5,0.5-1.7,1.3-0.9,2.6
	c1.5,2.2,0.8,3.9-1.6,4.7c-1.5,0.5-2,1.1-1.2,2.7c0.7,1.4,0.2,2.5-1.5,2.7c-1.8,0.3-2.6,1-2.3,3.1c0.2,1.8-1.8,2.7-2.9,4
	c0.1,0.1,0.3,0.3,0.4,0.2c7.5-5.4,16.3-6.2,25.1-6.6c12.7-0.6,25.2-2.6,37.9-3.1c0.2,0,0.5,0,0.6-0.1c3.4-2.9,8.2-2.8,11.5-6.1
	c8.4-8.5,19.1-10.7,30.5-10.3c2.8,0.1,3.6,2.6,4.5,4.7c0.8,2,0.8,3.8-1,5.5c-4,3.7-8.2,6.9-13.6,8.4c-1.1,0.3-2.3,0.6-3.3,1.2
	c-8.3,4.5-16.9,8-26.6,8.5c-8.7,0.5-16.5,4.3-24.3,7.8c-9.7,4.5-19.7,8-30.4,9.4c-5,0.6-9.7,3.3-14.8,4.5
	c-7.4,1.9-14.8,2.5-22.3,1.5c-1-0.1-1.4,0.5-2.1,0.8c-2.6,1.2-4.4,3.1-5.9,5.4c-0.1,0.2-0.6,0.2-0.9,0.1c-3.7-1.4-3.9,1-4,3.7
	c-0.4,12.9-2.8,25.4-6.8,37.6c-3.1,9.6-3.6,19.2-1.2,28.8c3.5,13.9,1.3,27-3.1,40.1c-2.6,7.5-5.6,14.8-8.8,22.1
	c-2.4,5.3-3.1,10.6,0.6,15.9c2.7,3.9,1.9,8.7-1.1,12.2c-1.3,1.5-1.2,2.9-0.7,4.6c1.6,4.9,1.9,10,0.3,15c-0.8,2.5-2,5.1-5.2,5.3
	c-3.4,0.2-6.7-2.3-7.6-5.6c-2.5-9-2.4-18.1-0.8-27.3c0.3-1.7,0.6-3.4,0.5-5c-0.1-3.3,0.5-6.5,1.7-9.6c2.4-6.1,2.3-12.7,2.8-19.1
	c1.2-13.5,2.9-26.9,2.7-40.5c-0.1-3.3-0.2-6.5-1.4-9.7c-0.4-1.2-0.7-2.5-0.7-3.7c-0.7-14.4-4.1-28.6-3.9-43.2c0-2.3-0.6-4.6-0.9-6.9
	c-0.1-0.9,0-2.1-1.4-2.1c-1.2,0-2.5-0.6-3.3,1.1c-2,4.3-5.3,5.5-9.7,3.9c-1.4-0.5-2.4-0.1-3.1,1.3c-0.4,0.9-1.1,1.9-2,1.9
	c-2.9,0.1-5.6,0.4-6.7,3.7c-0.1,0.2-1.1,0.4-1.4,0.2c-2-1.2-3-0.5-3.9,1.5c-0.7,1.6-1.9,1.3-2.7,0.1c-1.2-1.9-2.7-1.8-4.3-1.1
	c-1.5,0.6-2.4,0.5-2.8-1.3c-0.2-0.8-0.1-2.1-1.9-1.5c-1.1,0.4-0.8-0.9-0.8-1.5c0.2-2.1,0.4-4.3,1.5-6.1c6.9-12.1,11.8-25.3,20-36.7
	c2.7-3.8,5.8-7.3,9.3-10.4c1-0.9,1.8-1.7,0.7-2.9c-8.9-9.4-9.6-22.6-15.4-33.4c-0.9-1.7-1.6-3.5-2.6-5.1c-4.3-6.9-4.1-14.3-1.8-21.7
	c1-3.3-0.2-5.3-2.5-7.1c-2.7-2-5.7-3.6-8.8-5c-11.7-5-22.5-11.4-33.1-18.6c-9.6-6.5-16.8-15-23.9-23.8c-4.4-5.4-8.6-11-13.5-16
	c-2.2-2.3-3.8-4.9-4.2-8.3c-0.4-2.8-1.5-5.5-2.4-8.2c-0.7-2-1.1-4-1.2-6.2c-0.3-4.7-3.9-7.8-5.8-11.7c-0.6-1.3-3-2.7-1.6-3.8
	c1.6-1.2,2.8,1.1,3.8,2.4c1.9,2.4,3.6,4.9,5.8,7.5c-0.2-4.6,2.8-7.1,5.6-9.8c0.5-0.5,1.1-1.4,1.8-0.8c0.8,0.6,0.4,1.6-0.1,2.2
	c-0.9,1.2-1.8,2.4-2.8,3.4c-1,1-1.3,2.1-1.1,3.6c1.9-1.3,2.7-3.3,4.1-4.8c0.8-0.9,1.6-1.4,2.8-1.1c1.5,0.4,0.6,1.5,0.6,2.4
	c0.2,7.9-0.5,15.8-0.9,23.8c-0.1,1.6,0.8,2.6,1.8,3.6c5.2,5,10.6,9.8,16.2,14.2c6.6,5.2,13.9,9.7,19.3,16.4c0.5,0.6,1.2,1.3,1.9,1.6
	c9,3.6,16.5,10.6,26.3,12.3c7.8,1.4,14.8,4.8,22.3,7c10.4,3,12.7-1.3,11.9-10.4c-0.3-3.7-1.5-4.4-5.2-4.4c-5.5,0-6.9-1.8-6.2-7.1
	c0.3-2.6-1.3-5.5,1-7.8c0,0,0-0.2,0-0.3c-3.7-3.9,0.5-4.8,2.5-6.5c1.4-1.2,2.8-2.3,2.2-4.4c-0.4-1.4,0.4-2.4,1.4-3.3
	c2.3-2.2,5.3-3.5,7-6.4c0.2-0.3,0.7-0.5,1.1-0.5c7.4-0.2,15.1-2.2,21.6,3.2c0.7,0.6,1.1,0.6,1.8-0.1c1.5-1.6,3.1-1.2,4.8-0.1
	c4.5,3,7,11,4.8,15.9c-0.7,1.4-1.9,2.1-3.3,1.8c-1.5-0.4-2,0.1-2,1.4c-0.3,6.9-4.9,10.3-10.4,13.1c-1.3,0.7-3.5,0.7-3.8,2.4
	c-0.3,2.2,0.3,4.4,1.5,6.4c1,1.6,2.5,3.1,4.3,3.6c3.5,0.9,6.7,2.5,10.3,3c8.1,1,15.6,4,22.3,8.6c6.6,4.6,13.8,7.3,21.8,7.8
	c10.6,0.6,20.8,3.2,31,6.3c5.5,1.7,11.1,2.7,16.8,2.8c2.2,0,4.5,0.2,6.5,1.1c9.5,4.5,18.7,9.3,26.8,16c0.7,0.6,2.3,1.2,1.3,2.4
	c-0.7,0.8-2,0.3-2.9-0.3c-2-1.3-4-2.8-6-4.2c-1-0.7-2-1.5-3.7-1.8c1.3,4.2,1.3,8.1-0.7,11.8c-0.5,0.9-0.7,2.8-1.9,2.5
	c-1.8-0.5-0.3-2.1-0.4-3.3c0.2-1.8,1.4-3.3,1.7-5.1C371.4,304.7,370.8,306.5,369.7,308z"/>
</svg>
