<svg xmlns="http://www.w3.org/2000/svg" viewBox="0 0 40.166 52.439"><defs><style>.a{fill:#fff;}</style></defs><g transform="translate(-214.305 -1730.295)"><path class="a" d="M24.7,36.311H18.446A2.669,2.669,0,0,1,15.8,33.665V25.246A2.669,2.669,0,0,1,18.446,22.6H30.233A2.572,2.572,0,0,1,32.4,26.449l-5.533,8.419A2.909,2.909,0,0,1,24.7,36.311Z" transform="translate(215.583 1727.179)"/><path class="a" d="M22.652,30.376V64.293a2.669,2.669,0,0,1-2.646,2.646h-8.66A2.669,2.669,0,0,1,8.7,64.293V16.905A2.472,2.472,0,0,1,11.346,14.5H40.692a2.526,2.526,0,0,1,2.165,1.2l5.533,8.179a2.433,2.433,0,0,1-2.165,3.849H25.057A2.472,2.472,0,0,0,22.652,30.376Z" transform="translate(205.605 1715.795)"/></g></svg>